# xmcd CD database file
#
# Track frame offsets:
#	151
#	24220
#	55567
#	85444
#
# Disc length: 1476 seconds
#
# Revision: 0
# Processed by: cddbd v1.5.1PL0 Copyright (c) Steve Scherf et al.
# Submitted via: CDex 1.51
#
DISCID=2205c204
DTITLE=BRAIN DRIVE - MACH-4
DYEAR=1900
DGENRE=Techno
TTITLE0=PUKE
TTITLE1=SAD SONG
TTITLE2=Deep Ocean Mountain High (Bonus Track)
TTITLE3=BRAIN DRIVE (Bonus Track)
EXTD=
EXTT0=
EXTT1=
EXTT2=
EXTT3=
PLAYORDER=
